<svg width="24" height="24" viewBox="0 0 24 24" fill="none" xmlns="http://www.w3.org/2000/svg">
<path d="M10.1882 8.82355C10.4705 8.72944 10.7411 8.62355 11.0117 8.51767C10.0117 6.61179 8.88231 4.7765 7.62349 3.02356C4.94114 4.34121 2.92938 6.81179 2.25879 9.77649C4.94114 9.98826 7.65877 9.68238 10.1882 8.82355Z" fill="white"/>
<path d="M9.55295 13.5294C10.5882 12.9999 11.6471 12.5764 12.7529 12.247C12.7059 12.1058 12.647 11.9647 12.5882 11.8352C12.3412 11.247 12.0706 10.6705 11.8 10.1058C11.4588 10.2352 11.1176 10.3764 10.7529 10.5058C8.52941 11.247 6.15292 11.6352 3.78822 11.6352C3.19999 11.6352 2.61175 11.6 2.02352 11.5529C2.01175 11.7058 2 11.847 2 12C2 14.2705 2.77646 16.3647 4.04705 18.047C5.58822 16.1999 7.45883 14.6352 9.55295 13.5294Z" fill="white"/>
<path d="M17.9772 4C16.3066 2.75294 14.236 2 12.0007 2C11.0713 2 10.1772 2.14118 9.31836 2.37647C10.5419 4.11765 11.6478 5.92941 12.636 7.81176C14.9419 6.67058 16.7183 5.24706 17.9772 4Z" fill="white"/>
<path d="M10.3647 15.0941C7.98827 16.353 6.3177 18 5.23535 19.3412C7.01182 20.9883 9.38829 22 12.0001 22C13.2118 22 14.3647 21.7765 15.4471 21.3765C14.9765 18.8353 14.2942 16.3412 13.4118 13.9294C12.353 14.2236 11.3412 14.6 10.3647 15.0941Z" fill="white"/>
<path d="M15.1406 13.5176C15.9759 15.8235 16.623 18.1882 17.0818 20.6C19.5641 19.1294 21.3406 16.6235 21.8465 13.6823C20.4112 13.3647 17.9642 13.0471 15.1406 13.5176Z" fill="white"/>
<path d="M13.4121 9.38815C13.6945 9.97639 13.9651 10.5529 14.2239 11.1411C14.318 11.3764 14.4003 11.6117 14.4944 11.847C17.6003 11.2587 20.3297 11.5646 22.0003 11.9058C21.9768 9.3058 20.9415 6.9411 19.2827 5.17639C17.918 6.5411 15.9768 8.12933 13.4121 9.38815Z" fill="white"/>
</svg>
