<svg width="250" height="250" viewBox="0 0 250 250" fill="none" xmlns="http://www.w3.org/2000/svg">
<path d="M80 15C44.1624 15 15 44.1624 15 80V170C15 205.838 44.1624 235 80 235H170C205.838 235 235 205.838 235 170V80C235 44.1624 205.838 15 170 15H80ZM80 25H170C200.432 25 225 49.5676 225 80V170C225 200.432 200.432 225 170 225H80C49.5676 225 25 200.432 25 170V80C25 49.5676 49.5676 25 80 25ZM185 55C182.348 55 179.804 56.0536 177.929 57.9289C176.054 59.8043 175 62.3478 175 65C175 67.6522 176.054 70.1957 177.929 72.0711C179.804 73.9464 182.348 75 185 75C187.652 75 190.196 73.9464 192.071 72.0711C193.946 70.1957 195 67.6522 195 65C195 62.3478 193.946 59.8043 192.071 57.9289C190.196 56.0536 187.652 55 185 55ZM125 70C94.6836 70 70 94.6836 70 125C70 155.316 94.6836 180 125 180C155.316 180 180 155.316 180 125C180 94.6836 155.316 70 125 70ZM125 80C149.912 80 170 100.088 170 125C170 149.912 149.912 170 125 170C100.088 170 80 149.912 80 125C80 100.088 100.088 80 125 80Z" fill="#E35C67"/>
</svg>
