<svg width="300" height="300" viewBox="0 0 300 300" fill="none" xmlns="http://www.w3.org/2000/svg">
<path d="M197.672 142.723C196.816 142.312 195.943 141.914 195.059 141.539C193.523 113.203 178.043 96.9785 152.045 96.8145C137.045 96.7148 123.615 102.832 115.248 115.529L129.545 125.338C135.492 116.314 144.826 114.393 151.699 114.393H151.934C160.494 114.445 166.957 116.936 171.135 121.787C174.176 125.326 176.215 130.207 177.223 136.371C169.629 135.082 161.426 134.684 152.648 135.188C127.934 136.611 112.043 151.025 113.109 171.053C113.648 181.219 118.711 189.955 127.359 195.668C134.672 200.496 144.094 202.857 153.879 202.318C166.811 201.615 176.947 196.682 184.025 187.664C189.398 180.814 192.797 171.937 194.297 160.758C200.455 164.473 205.02 169.365 207.545 175.248C211.828 185.244 212.08 201.674 198.674 215.068C186.932 226.805 172.811 231.879 151.477 232.037C127.805 231.861 109.904 224.268 98.2676 209.473C87.3691 195.621 81.7383 175.611 81.5273 150C81.7383 124.389 87.3691 104.379 98.2676 90.5273C109.904 75.7324 127.805 68.1387 151.477 67.9629C175.312 68.1387 193.523 75.7676 205.611 90.6328C211.535 97.9219 216 107.092 218.947 117.779L235.699 113.309C232.131 100.154 226.518 88.8164 218.871 79.4121C203.379 60.3516 180.727 50.5898 151.535 50.3848H151.418C122.285 50.5898 99.8789 60.3926 84.832 79.5234C71.4375 96.5449 64.5293 120.234 64.3008 149.93V150.07C64.5293 179.766 71.4375 203.455 84.832 220.477C99.8789 239.607 122.285 249.416 151.418 249.615H151.535C177.434 249.434 195.691 242.654 210.732 227.625C230.408 207.967 229.816 183.328 223.33 168.199C218.678 157.354 209.807 148.541 197.672 142.723ZM152.953 184.77C142.125 185.379 130.869 180.516 130.312 170.104C129.902 162.381 135.809 153.762 153.621 152.736C155.66 152.619 157.664 152.561 159.627 152.561C166.096 152.561 172.148 153.188 177.65 154.395C175.6 180.023 163.564 184.184 152.953 184.77Z" fill="#FF396F"/>
</svg>
