<svg width="24" height="24" viewBox="0 0 24 24" fill="none" xmlns="http://www.w3.org/2000/svg">
<path d="M22 5.79891C21.2643 6.12443 20.4733 6.34578 19.6432 6.44344C20.4896 5.93563 21.1406 5.13159 21.4466 4.17456C20.6556 4.64331 19.7767 4.98511 18.8424 5.17065C18.0937 4.37313 17.026 3.87183 15.8477 3.87183C13.582 3.87183 11.7428 5.71102 11.7428 7.97664C11.7428 8.29891 11.7786 8.61141 11.8503 8.91089C8.4388 8.74162 5.41471 7.1075 3.39323 4.62378C3.03841 5.22925 2.83659 5.93563 2.83659 6.68758C2.83659 8.11011 3.55924 9.36662 4.66276 10.1023C3.98893 10.0795 3.35742 9.89722 2.80404 9.58797C2.80404 9.6075 2.80404 9.62378 2.80404 9.64005C2.80404 11.629 4.2168 13.2891 6.09505 13.6635C5.75 13.7579 5.38867 13.81 5.01432 13.81C4.75065 13.81 4.49023 13.7839 4.24284 13.7351C4.76367 15.366 6.2806 16.5509 8.07422 16.5867C6.67122 17.6869 4.90039 18.3412 2.97982 18.3412C2.64779 18.3412 2.32227 18.3217 2 18.2826C3.81641 19.448 5.97135 20.1283 8.28906 20.1283C15.8379 20.1283 19.9655 13.8751 19.9655 8.4519C19.9655 8.27612 19.959 8.09709 19.9525 7.9213C20.7533 7.34188 21.4499 6.61922 22 5.79891Z" fill="white"/>
</svg>
