<svg width="500" height="396" viewBox="0 0 500 396" fill="none" xmlns="http://www.w3.org/2000/svg">
<path d="M280.849 406.55L264.599 359.075L263.074 351.925C263.074 351.925 266.424 349.575 266.524 344.2C266.599 338.825 263.349 330.95 261.299 330.025C259.224 329.1 258.174 328.85 257.349 330.525C257.349 330.525 255.024 327.175 252.849 328.125C250.674 329.075 250.849 331.825 250.849 331.825C250.849 331.825 247.799 328.075 246.349 328.875C244.899 329.675 244.524 334.3 244.524 334.3C244.524 334.3 241.974 332.325 240.724 333.075C239.474 333.825 239.674 338.875 239.674 338.875C239.674 338.875 232.974 344.825 234.799 349.375C236.624 353.925 243.499 354.75 244.299 356.675C245.099 358.6 253.849 428.25 253.849 428.25L280.849 406.55Z" fill="white"/>
<path d="M281.525 406.3C274.35 385.95 263.775 354.925 263.775 352.175C264 351.775 264.35 351.375 264.75 350.925C265.925 349.6 267.5 347.775 267.25 344.15C266.925 339.675 264.95 331.925 261.725 329.425C260.925 328.8 259.025 327.85 257.625 328.75C257.4 328.9 257.2 329.1 257.025 329.3C256.65 328.65 256.1 327.975 255.35 327.575C254.5 327.125 253.575 327.075 252.6 327.425C251.85 327.7 251.225 328.3 250.825 329.175C250.675 329.5 250.55 329.875 250.45 330.25C250.35 330.1 250.225 329.975 250.1 329.825C248.75 328.375 247.225 327.875 245.7 328.4C244.35 328.875 243.7 330.325 243.725 332.675C243.2 332.35 242.55 332.05 241.85 332C241.025 331.95 240.25 332.225 239.6 332.8C239.075 333.25 238.575 334.3 238.775 338.2C237.5 339.525 231.475 346.275 234.525 350.875C236.225 353.475 238.675 354.525 240.65 355.35C242.3 356.05 243.6 356.6 244.05 357.8C244.975 360.3 250.9 409.6 253.1 428.375C253.15 428.775 253.475 429.05 253.85 429.05C253.875 429.05 253.9 429.05 253.95 429C254.35 428.95 254.65 428.575 254.6 428.175C254.275 425.425 246.675 360.45 245.475 357.25C244.8 355.45 243.075 354.725 241.25 353.95C239.375 353.15 237.25 352.25 235.775 350.025C233.8 347.05 237.1 342.45 238.925 340.275C238.95 340.425 238.95 340.6 238.975 340.75C239.275 343.95 239.775 347.05 239.775 347.075C239.85 347.45 240.175 347.7 240.525 347.7C240.575 347.7 240.625 347.7 240.65 347.7C241.075 347.65 241.35 347.25 241.275 346.85C240.25 340.575 239.95 334.65 240.6 333.925C240.975 333.6 241.325 333.475 241.75 333.5C242.625 333.575 243.525 334.35 243.9 334.725C244.175 336.725 244.7 338.475 244.725 338.55C244.825 338.875 245.125 339.075 245.45 339.075C245.525 339.075 245.6 339.075 245.65 339.025C246.05 338.925 246.275 338.5 246.15 338.1C245.225 335.075 244.6 330.35 246.175 329.8C248.5 329 250.2 332.625 250.225 332.65C250.25 332.7 250.275 332.75 250.325 332.8C250.4 333.675 250.625 334.6 250.95 335.5C251.05 335.8 251.35 336 251.65 336C251.725 336 251.825 335.975 251.925 335.95C252.325 335.8 252.525 335.375 252.375 334.975C251.675 333.075 251.625 331.05 252.2 329.8C252.35 329.45 252.65 329 253.125 328.825C253.7 328.625 254.2 328.625 254.65 328.875C255.625 329.4 256.175 330.875 256.3 331.4C256.325 331.45 256.325 331.5 256.35 331.55C256.325 332.475 256.45 333.575 256.75 334.9C256.85 335.325 257.25 335.575 257.65 335.475C258.075 335.375 258.325 334.975 258.225 334.575C257.425 331 258.2 330.2 258.45 330.025C259.05 329.625 260.225 330.125 260.825 330.6C263.3 332.525 265.425 339.325 265.775 344.25C266 347.25 264.75 348.675 263.65 349.925C263.175 350.475 262.725 351 262.425 351.6C262.15 352.15 261.75 353 270.95 380.15C275.45 393.425 280.1 406.675 280.15 406.8C280.25 407.1 280.55 407.3 280.85 407.3C280.925 407.3 281.025 407.3 281.075 407.25C281.45 407.125 281.675 406.7 281.525 406.3Z" fill="black"/>
<path d="M442.249 433.1L449.824 391.6C449.824 391.6 452.199 375.3 450.599 371.125C448.999 366.95 439.949 362.325 437.974 357.3C435.999 352.275 431.574 340.05 431.574 340.05C431.574 340.05 434.149 337.6 436.999 341.1C439.824 344.6 446.024 351.65 448.674 349.7C451.324 347.75 453.249 318.525 455.774 318.3C458.324 318.075 457.599 339.775 458.924 340.025C460.249 340.275 463.224 326.575 463.224 326.575C463.224 326.575 464.524 312.15 466.774 312.225C469.024 312.3 470.024 323.2 468.899 328.125C467.774 333.05 468.474 344.125 469.599 344.025C470.724 343.925 475.399 329.25 475.399 329.25C475.399 329.25 478.949 321.075 480.149 321.875C481.349 322.675 481.024 329.5 480.224 333.75C479.424 338 478.424 343.375 478.424 343.375L482.174 338.75C482.174 338.75 486.099 329.75 487.449 330.5C488.799 331.25 487.474 337.55 487.474 337.55L483.474 348.5L480.474 358.9C480.474 358.9 474.224 385.475 473.649 395.725C473.074 405.975 472.724 425.9 474.224 429.05C474.249 429.1 457.174 433.6 442.249 433.1Z" fill="white"/>
<path d="M488.623 330.65C488.323 330.1 487.923 329.9 487.623 329.85C485.848 329.5 484.523 332.3 483.123 335.3C482.848 335.875 482.598 336.425 482.348 336.925C481.698 338.2 480.423 340.075 479.298 341.675C479.773 339.575 480.373 336.8 480.873 334C482.773 323.4 481.698 321.6 480.423 321.225C478.198 320.6 476.323 325.125 472.898 334.9C471.823 337.95 470.398 342 469.648 343.15C469.448 342.625 469.098 341.175 469.198 337.175C469.248 334.3 469.548 330.6 469.948 327.25C470.523 322.55 470.398 314.825 468.373 312.375C467.848 311.725 467.273 311.575 466.873 311.55C464.173 311.375 463.573 316.725 463.098 321.025C462.998 321.9 462.898 322.65 462.823 323.15L462.773 323.375C460.873 334.2 459.673 338.225 459.048 339.725C458.898 338.325 458.873 335.8 458.823 333.675C458.673 325.2 458.398 319.1 456.223 317.9C455.798 317.65 455.123 317.5 454.248 318.025C453.073 318.725 452.423 322.45 450.898 334.075C450.098 340.075 449.023 348.3 448.173 349.175C447.848 349.475 447.423 349.575 446.873 349.5C444.748 349.2 441.598 346.275 439.223 342.35C437.873 340.15 436.323 338.875 434.623 338.6C432.598 338.275 431.148 339.45 431.098 339.5C430.848 339.725 430.773 340.05 430.873 340.35C430.948 340.475 435.948 353.9 437.273 357.575C437.998 359.625 440.348 361.725 443.073 364.175C445.548 366.375 448.323 368.9 449.973 371.525C450.723 372.725 451.298 378.525 446.973 404.05C444.498 418.675 441.548 432.8 441.523 432.95C441.423 433.35 441.698 433.75 442.098 433.825C442.148 433.85 442.198 433.85 442.248 433.85C442.598 433.85 442.898 433.6 443.073 433.2C443.123 433.075 446.048 418.9 448.548 404.25C453.623 374.35 451.923 371.575 451.348 370.675C449.598 367.875 446.723 365.275 444.173 363C441.698 360.775 439.373 358.7 438.773 357C437.623 353.775 433.573 342.925 432.598 340.325C433.023 340.125 433.698 339.875 434.498 340.025C435.748 340.25 436.923 341.275 438.023 343.075C440.698 347.5 444.123 350.575 446.748 350.95C447.748 351.075 448.623 350.825 449.273 350.225C450.373 349.2 451.123 344.325 452.448 334.225C453.223 328.3 454.298 320.2 455.123 319.25C455.398 319.1 455.498 319.15 455.548 319.175C455.748 319.3 456.523 320.025 456.948 324.25C457.223 327.1 457.298 330.6 457.348 333.675C457.398 335.75 457.423 337.675 457.523 339.075C457.598 340.375 457.723 342 458.823 342C459.698 342 460.573 341.375 462.298 333.7C463.223 329.625 464.023 325.1 464.273 323.625L464.323 323.4C464.423 322.875 464.498 322.075 464.598 321.175C464.798 319.425 465.048 317.25 465.473 315.525C465.923 313.675 466.498 313.025 466.798 313.05C466.948 313.05 467.098 313.15 467.248 313.35C468.598 314.975 469.173 321.375 468.473 327.075C468.048 330.425 467.773 334.175 467.698 337.075C467.573 342.55 468.173 343.9 468.698 344.45C468.973 344.725 469.348 344.875 469.723 344.85C470.923 344.75 471.698 342.85 474.323 335.4C475.398 332.325 476.523 329.175 477.598 326.675C479.123 323.175 479.873 322.725 480.023 322.675C480.173 322.85 481.123 324.225 479.323 334.125C478.423 338.975 477.298 343.7 477.023 344.75C476.798 345.075 476.898 345.5 477.198 345.725C477.448 345.925 477.773 345.95 478.048 345.775C478.198 345.7 478.323 345.575 478.398 345.425C479.098 344.5 482.473 340.05 483.698 337.6C483.948 337.075 484.223 336.525 484.498 335.925C485.048 334.7 485.648 333.45 486.223 332.525C486.823 331.55 487.173 331.35 487.298 331.3C487.748 332.025 487.698 336.9 484.273 344.5C480.573 352.7 477.123 370.05 477.098 370.225C476.998 370.675 476.898 371.2 476.773 371.825C474.973 380.75 470.173 404.375 473.523 429.2C473.573 429.575 473.898 429.85 474.273 429.85C474.298 429.85 474.348 429.85 474.398 429.9C474.823 429.85 475.098 429.45 475.048 429.05C471.748 404.475 476.473 381 478.273 372.175C478.398 371.55 478.498 371 478.598 370.55C478.623 370.375 482.048 353.2 485.673 345.15C488.423 338.975 489.698 332.75 488.623 330.65Z" fill="black"/>
<path d="M456.598 344.65C456.173 344.625 455.823 344.925 455.798 345.35L455.648 348.025C455.623 348.45 455.923 348.8 456.348 348.825C456.373 348.825 456.373 348.825 456.398 348.825C456.798 348.825 457.123 348.525 457.148 348.125L457.298 345.45C457.323 345.025 457.023 344.675 456.598 344.65Z" fill="black"/>
<path d="M465.123 345.425C464.723 345.525 464.473 345.925 464.573 346.325C464.823 347.35 464.898 348.55 464.723 348.8C464.473 349.125 464.523 349.6 464.848 349.85C464.998 349.975 465.148 350.025 465.323 350.025C465.548 350.025 465.748 349.925 465.873 349.75C466.648 348.8 466.173 346.625 466.023 345.975C465.923 345.575 465.523 345.325 465.123 345.425Z" fill="black"/>
<path d="M473.673 351.25C473.823 351.375 473.973 351.425 474.148 351.425C474.373 351.425 474.598 351.325 474.723 351.125C475.423 350.225 475.373 348 475.323 347.35C475.298 346.95 474.948 346.625 474.523 346.65C474.123 346.675 473.798 347.025 473.823 347.45C473.898 348.625 473.773 349.925 473.548 350.2C473.298 350.525 473.348 351 473.673 351.25Z" fill="black"/>
<path d="M480.123 351.225C480.273 351.3 480.398 351.35 480.548 351.35C480.798 351.35 481.023 351.25 481.148 351.025C481.773 350.075 481.698 349 481.548 348.525C481.423 348.125 481.023 347.9 480.623 348.025C480.248 348.15 480.023 348.55 480.123 348.95C480.123 348.975 480.298 349.6 479.923 350.175C479.673 350.525 479.773 351 480.123 351.225Z" fill="black"/>
<path d="M109.501 218.775C108.326 218.775 107.326 218.425 106.576 217.725C106.026 217.225 105.626 216.55 105.276 215.6C103.951 211.875 104.901 207.475 107.651 204.65C108.676 203.6 109.701 203.125 110.751 203.225C111.551 203.325 112.301 203.9 112.626 204.7C112.901 205.375 112.801 206.075 112.351 206.575C112.051 206.925 111.526 206.975 111.176 206.675C110.826 206.375 110.776 205.85 111.076 205.5C111.126 205.45 111.076 205.35 111.051 205.325C110.976 205.1 110.726 204.9 110.551 204.9C109.926 204.825 109.276 205.375 108.826 205.825C106.501 208.225 105.701 211.925 106.826 215.075C107.076 215.75 107.351 216.225 107.676 216.55C108.901 217.675 111.076 216.95 111.951 216.6C117.051 214.475 120.601 209.9 124.101 205.025C124.751 204.1 125.401 203.175 126.001 202.25C125.426 201.95 124.901 201.575 124.501 201.075C123.726 200.125 123.301 198.85 123.201 197.175C123.076 194.925 123.926 192.55 125.326 191.15C126.276 190.2 127.426 189.75 128.676 189.825C129.501 189.875 130.226 190.2 130.651 190.725C131.226 191.4 131.276 192.3 131.251 192.975C131.126 195.9 130.101 198.575 128.626 201.175C128.951 201.175 129.276 201.15 129.626 201.075C131.176 200.75 132.576 199.8 133.751 198.9C137.876 195.75 141.376 191.7 143.901 187.15C143.426 186.825 143.001 186.4 142.701 185.925C142.201 185.1 142.101 184.175 142.426 183.35C142.851 182.3 144.126 181.475 145.326 181.925C145.876 182.125 146.301 182.55 146.526 183.1C146.901 184.05 146.651 185.25 146.276 186.15C147.451 186.1 148.626 185.45 149.826 184.725C155.176 181.525 159.276 178.5 161.951 174.275C162.201 173.875 162.701 173.775 163.101 174.025C163.501 174.275 163.601 174.775 163.351 175.175C160.326 179.95 155.476 183.275 150.676 186.15C149.126 187.075 147.476 187.975 145.651 187.775C145.576 187.775 145.501 187.75 145.451 187.75C142.801 192.575 139.126 196.875 134.751 200.2C133.426 201.2 131.826 202.3 129.951 202.675C129.176 202.825 128.401 202.85 127.651 202.75C126.951 203.825 126.226 204.9 125.451 205.975C121.801 211.075 118.076 215.85 112.576 218.125C111.501 218.525 110.451 218.775 109.501 218.775ZM128.451 191.425C127.751 191.425 127.101 191.7 126.526 192.275C125.451 193.325 124.801 195.25 124.901 197.025C124.976 198.325 125.276 199.3 125.826 199.95C126.126 200.3 126.501 200.575 126.926 200.775C128.426 198.25 129.501 195.65 129.626 192.875C129.651 192.5 129.626 192 129.426 191.75C129.276 191.575 129.001 191.475 128.626 191.45C128.551 191.425 128.501 191.425 128.451 191.425ZM144.626 183.375C144.376 183.375 144.076 183.6 143.951 183.875C143.776 184.3 143.926 184.7 144.101 184.975C144.251 185.2 144.426 185.425 144.651 185.575C145.001 184.85 145.126 184.025 144.976 183.625C144.926 183.5 144.851 183.425 144.751 183.4C144.726 183.375 144.676 183.375 144.626 183.375Z" fill="white"/>
<path d="M451.951 296.4C451.826 296.4 451.701 296.375 451.576 296.3C448.551 294.75 446.926 291.275 446.776 285.95C444.076 286.475 441.151 286.725 438.926 284.975C438.001 284.25 437.251 283.2 436.651 281.75C435.001 277.8 435.101 273.55 435.401 268.825C435.476 267.6 435.576 266.25 435.801 264.875C432.151 265.25 427.951 265.15 425.801 262.025C424.401 260 424.476 257.55 424.651 254.975C424.751 253.475 425.051 249.5 427.976 248.275C428.401 248.1 428.901 248.3 429.076 248.725C429.251 249.15 429.051 249.65 428.626 249.825C426.876 250.575 426.476 253.05 426.326 255.125C426.151 257.375 426.101 259.525 427.176 261.1C428.951 263.65 432.876 263.575 436.176 263.175C436.476 262.125 436.876 261.1 437.451 260.15C438.101 259.1 439.076 258.15 440.176 257.475C441.826 256.475 443.526 257.2 444.326 258.45C445.151 259.675 445.151 261.525 443.601 262.65C443.326 262.85 443.026 263.025 442.726 263.2C441.076 264.1 439.226 264.425 437.501 264.65C437.251 265.975 437.126 267.4 437.026 268.925C436.751 273.45 436.626 277.5 438.151 281.1C438.651 282.275 439.226 283.125 439.926 283.675C441.676 285.05 444.326 284.725 446.726 284.25C446.751 283.025 446.901 281.775 447.601 280.7C448.126 279.9 449.001 279.35 449.926 279.175C450.676 279.05 451.401 279.2 451.976 279.625C452.051 279.675 452.101 279.75 452.151 279.825C453.151 281.275 452.476 283.25 451.276 284.275C450.426 285 449.351 285.35 448.376 285.575C448.476 290.425 449.776 293.525 452.276 294.8C452.676 295 452.851 295.5 452.651 295.925C452.526 296.225 452.251 296.4 451.951 296.4ZM450.476 280.825C450.401 280.825 450.326 280.825 450.251 280.85C449.776 280.925 449.301 281.25 449.051 281.65C448.651 282.275 448.501 283.05 448.451 283.9C449.126 283.725 449.751 283.45 450.251 283.05C450.851 282.55 451.226 281.6 450.901 280.95C450.751 280.85 450.601 280.825 450.476 280.825ZM441.751 258.7C441.526 258.7 441.276 258.775 441.001 258.925C440.126 259.45 439.376 260.2 438.851 261.05C438.476 261.65 438.201 262.275 437.976 262.95C439.376 262.725 440.726 262.425 441.926 261.775C442.151 261.65 442.376 261.5 442.601 261.35C443.401 260.775 443.276 259.95 442.926 259.4C442.676 259.025 442.276 258.7 441.751 258.7Z" fill="black"/>
<path d="M266.726 235.35C266.651 235.35 266.576 235.35 266.526 235.35C265.376 235.3 264.251 234.675 263.476 233.675C262.676 232.625 262.326 231.3 262.551 230.1C263.001 227.75 265.476 225.975 267.951 226.275C268.401 226.325 268.726 226.75 268.676 227.2C268.626 227.65 268.201 228 267.751 227.925C266.151 227.75 264.476 228.9 264.176 230.425C264.026 231.15 264.251 232 264.776 232.675C265.251 233.3 265.926 233.675 266.601 233.7C267.701 233.75 268.876 233.05 269.601 231.875C270.351 230.7 270.601 229.25 270.776 227.875C271.651 221.075 270.601 214.075 267.826 207.825C266.076 208.175 264.226 207.75 262.876 207.35C259.126 206.25 258.051 204.075 258.301 202.425C258.451 201.475 259.026 200.65 259.951 200.125C261.076 199.475 262.526 199.35 263.726 199.825C265.701 200.6 266.901 202.4 267.826 204.05C268.126 204.6 268.426 205.175 268.726 205.75C268.751 205.725 268.776 205.725 268.801 205.7C270.151 204.875 270.801 203.2 271.326 201.5C273.201 195.45 273.926 189.175 273.526 182.85C273.501 182.4 273.851 182 274.301 181.975C274.751 181.95 275.151 182.3 275.176 182.75C275.601 189.275 274.826 195.75 272.901 201.975C272.326 203.875 271.476 205.975 269.651 207.1C269.576 207.15 269.476 207.2 269.376 207.25C272.226 213.75 273.301 221.025 272.401 228.075C272.201 229.65 271.876 231.3 270.976 232.75C270.026 234.35 268.351 235.35 266.726 235.35ZM262.201 201.15C261.701 201.15 261.201 201.275 260.801 201.5C260.476 201.7 260.051 202.05 259.976 202.625C259.751 204.2 262.001 205.3 263.376 205.725C264.876 206.175 266.126 206.325 267.126 206.225C266.901 205.75 266.651 205.275 266.376 204.825C265.601 203.425 264.601 201.925 263.126 201.35C262.851 201.225 262.526 201.15 262.201 201.15Z" fill="white"/>
<path d="M52.1016 207.15L56.1016 217.15L70.8516 209.65L66.8516 202.9L52.1016 207.15Z" fill="white"/>
<path d="M162.601 235.4L168.601 241.4L177.601 232.9L172.351 226.9L162.601 235.4Z" fill="white"/>
<path d="M168.6 242.15C168.4 242.15 168.225 242.075 168.075 241.925L162.075 235.925C161.925 235.775 161.85 235.575 161.85 235.375C161.85 235.175 161.95 234.975 162.1 234.825L171.85 226.325C172.15 226.05 172.625 226.075 172.9 226.4L178.15 232.4C178.425 232.7 178.4 233.15 178.1 233.45L169.1 241.95C168.975 242.1 168.8 242.15 168.6 242.15ZM163.7 235.45L168.625 240.375L176.575 232.875L172.3 227.975L163.7 235.45Z" fill="black"/>
<path d="M30.3511 255.4L35.0761 256.4L37.1011 249.5L30.8761 247.3L30.3511 255.4Z" fill="white"/>
<path d="M35.0763 257.15C35.0263 257.15 34.9763 257.15 34.9263 257.125L30.2013 256.125C29.8263 256.05 29.5763 255.725 29.6013 255.35L30.1013 247.25C30.1263 247.025 30.2513 246.8 30.4263 246.675C30.6263 246.55 30.8763 246.525 31.1013 246.6L37.3513 248.8C37.7263 248.925 37.9263 249.325 37.8263 249.725L35.8013 256.65C35.7013 256.95 35.4013 257.15 35.0763 257.15ZM31.1513 254.8L34.5513 255.525L36.1763 249.95L31.5513 248.325L31.1513 254.8Z" fill="black"/>
<path d="M164.851 280.35L169.851 284.6L165.851 293.85L161.101 291.1L164.851 280.35Z" fill="white"/>
<path d="M202.601 220.4L193.101 199.9L188.551 202.275L182.101 187.65L176.351 191.15L186.601 211.65L191.151 208.775L198.601 222.65L202.601 220.4Z" fill="white"/>
<path d="M373.601 202.4L376.351 199.4L384.851 212.15L378.851 216.65L373.601 202.4Z" fill="white"/>
<path d="M314.101 233.65L320.351 229.9L326.101 234.9L319.101 242.4L314.101 233.65Z" fill="white"/>
<path d="M211.85 313.15L218.1 309.4L227.35 322.4L220.85 323.9L211.85 313.15Z" fill="white"/>
<path d="M425.101 227.15L429.851 221.15L438.101 231.4L433.601 236.15L425.101 227.15Z" fill="black"/>
<path d="M432.851 230.925L437.401 227.15L442.101 235.75L438.076 238.9L432.851 230.925Z" fill="black"/>
<path d="M207.662 126.966C272.064 97.5473 316.948 57.6637 307.912 37.8833C298.877 18.103 239.344 25.9163 174.941 55.3349C110.539 84.7536 65.6553 124.637 74.6909 144.418C83.7264 164.198 143.26 156.385 207.662 126.966Z" fill="#C8C8C8"/>
<path d="M178.325 60.9749C238.1 33.6749 293.65 24.975 308.575 39.675C308.4 39.075 308.175 38.4749 307.925 37.9C298.9 18.125 239.35 25.95 174.95 55.3749C110.55 84.7999 65.6503 124.675 74.7003 144.45C75.3503 145.875 76.2753 147.15 77.4253 148.3C71.6503 127.95 115.8 89.5249 178.325 60.9749Z" fill="white"/>
<path d="M244.65 73.1C244.3 73.1 243.95 72.875 243.85 72.5C243.725 72.05 243.975 71.6 244.425 71.475C254.8 68.4 263.75 66.425 271.05 65.6C271.5 65.55 271.925 65.875 271.975 66.325C272.025 66.775 271.7 67.2 271.25 67.25C264.05 68.075 255.175 70.05 244.9 73.075C244.8 73.1 244.725 73.1 244.65 73.1Z" fill="black"/>
<path d="M231.8 77.2251C231.45 77.2251 231.125 77.0001 231 76.6501C230.85 76.2251 231.075 75.7501 231.525 75.6001C233.575 74.9001 235.625 74.2251 237.6 73.5751C238.05 73.4251 238.5 73.6751 238.65 74.1251C238.8 74.5751 238.55 75.0251 238.1 75.1751C236.125 75.8251 234.075 76.5001 232.05 77.2001C231.975 77.2001 231.875 77.2251 231.8 77.2251Z" fill="black"/>
<path d="M203.455 71.955C210.004 69.77 214.427 65.3443 213.335 62.07C212.242 58.7956 206.048 57.9125 199.499 60.0975C192.95 62.2824 188.527 66.7081 189.62 69.9825C190.712 73.2568 196.907 74.1399 203.455 71.955Z" fill="white"/>
<path d="M196.576 74.0001C192.651 74.0001 189.651 72.6751 188.826 70.2501C187.576 66.4751 192.151 61.6751 199.226 59.3001C202.526 58.2001 205.826 57.8251 208.576 58.2001C211.526 58.6251 213.476 59.9001 214.126 61.8001C214.751 63.7001 213.951 65.9001 211.851 68.0001C209.901 69.9501 207.001 71.6501 203.726 72.7251C201.201 73.6001 198.751 74.0001 196.576 74.0001ZM206.401 59.7501C204.351 59.7501 202.051 60.1501 199.776 60.9001C193.776 62.9001 189.501 66.9501 190.426 69.7251C191.351 72.5001 197.201 73.1751 203.201 71.1751C206.251 70.1501 208.901 68.6251 210.676 66.8501C212.276 65.2501 212.976 63.6001 212.551 62.3501C212.126 61.1001 210.601 60.2001 208.351 59.8751C207.726 59.7751 207.076 59.7501 206.401 59.7501Z" fill="black"/>
<path d="M260.931 53.1805C267.48 50.9956 271.903 46.5699 270.81 43.2955C269.718 40.0212 263.523 39.1381 256.975 41.323C250.426 43.508 246.003 47.9337 247.095 51.208C248.188 54.4824 254.382 55.3655 260.931 53.1805Z" fill="white"/>
<path d="M254.026 55.2252C250.101 55.2252 247.101 53.9002 246.276 51.4752C245.026 47.7002 249.601 42.9002 256.676 40.5252C259.976 39.4252 263.276 39.0502 266.026 39.4252C268.976 39.8502 270.926 41.1252 271.576 43.0252C272.201 44.9252 271.401 47.1252 269.301 49.2252C267.351 51.1752 264.451 52.8752 261.176 53.9502C258.676 54.8252 256.201 55.2252 254.026 55.2252ZM263.851 40.9502C261.801 40.9502 259.501 41.3502 257.226 42.1002C251.226 44.1002 246.951 48.1502 247.876 50.9252C248.801 53.7002 254.651 54.3752 260.651 52.3752C263.701 51.3502 266.351 49.8252 268.126 48.0502C269.726 46.4502 270.426 44.8002 270.001 43.5502C269.576 42.3002 268.051 41.4002 265.801 41.0752C265.201 41.0002 264.551 40.9502 263.851 40.9502Z" fill="black"/>
<path d="M301.975 46.9501C295.425 49.1251 291 53.5501 292.1 56.8251C293.025 59.5751 297.55 60.6501 302.875 59.6001C306.25 54.6001 308.325 49.9251 308.9 45.7251C306.8 45.7501 304.4 46.1251 301.975 46.9501Z" fill="white"/>
<path d="M154.823 94.425C160.974 91.2887 164.688 86.2533 163.12 83.1782C161.552 80.103 155.295 80.1525 149.145 83.2888C142.994 86.4251 139.28 91.4605 140.848 94.5357C142.416 97.6108 148.673 97.5613 154.823 94.425Z" fill="white"/>
<path d="M146 97.6499C143.075 97.6499 140.975 96.675 140.075 94.925C138.275 91.375 142.075 85.95 148.725 82.55C155.375 79.15 162.025 79.275 163.825 82.8C164.725 84.575 164.275 86.8749 162.5 89.2749C160.85 91.4999 158.25 93.6 155.175 95.175C152.1 96.75 148.875 97.6249 146.1 97.6499C146.075 97.6499 146.05 97.6499 146 97.6499ZM157.975 81.725C155.55 81.725 152.5 82.4999 149.5 84.0249C143.875 86.8999 140.225 91.5249 141.575 94.1499C142.175 95.3249 143.8 95.975 146.1 95.975C148.625 95.95 151.575 95.15 154.425 93.675C157.275 92.225 159.675 90.2999 161.175 88.2749C162.525 86.4499 162.95 84.725 162.35 83.55C161.75 82.325 160.125 81.725 157.975 81.725Z" fill="black"/>
<path d="M110.569 125.601C116.719 122.464 120.434 117.429 118.866 114.354C117.298 111.279 111.041 111.328 104.89 114.464C98.7398 117.601 95.0251 122.636 96.5933 125.711C98.1614 128.786 104.419 128.737 110.569 125.601Z" fill="white"/>
<path d="M101.775 128.825C98.8499 128.825 96.7499 127.85 95.8499 126.1C94.9499 124.325 95.3999 122.025 97.1749 119.625C98.8249 117.4 101.425 115.3 104.5 113.725C111.15 110.325 117.8 110.45 119.6 113.975C121.4 117.525 117.6 122.95 110.95 126.35C107.875 127.925 104.65 128.8 101.875 128.825C101.85 128.825 101.8 128.825 101.775 128.825ZM113.75 112.9C111.325 112.9 108.275 113.675 105.275 115.2C102.425 116.65 100.025 118.575 98.5249 120.6C97.1749 122.425 96.7499 124.15 97.3499 125.325C97.9499 126.5 99.5999 127.15 101.875 127.15C104.4 127.125 107.35 126.325 110.2 124.85C115.825 121.975 119.475 117.35 118.125 114.725C117.5 113.5 115.875 112.9 113.75 112.9Z" fill="black"/>
<path d="M86.1496 150.85C85.2996 151.3 84.4746 151.775 83.7246 152.275C87.8996 154 93.2496 155 99.5746 155.275C100.525 153.6 100.775 152 100.125 150.75C98.5496 147.65 92.2996 147.7 86.1496 150.85Z" fill="white"/>
<path d="M99.5751 156.1C99.5501 156.1 99.5501 156.1 99.5251 156.1C93.0251 155.8 87.6001 154.775 83.4001 153.05C83.1251 152.925 82.9251 152.675 82.9001 152.35C82.8751 152.025 83.0001 151.75 83.2751 151.575C84.0751 151.05 84.9251 150.55 85.8001 150.1C92.4501 146.7 99.1001 146.825 100.9 150.35C101.65 151.85 101.45 153.675 100.325 155.675C100.15 155.925 99.8751 156.1 99.5751 156.1ZM85.6001 152.075C89.2751 153.35 93.8001 154.125 99.0751 154.4C99.5501 153.425 99.9251 152.15 99.3751 151.1C98.0501 148.475 92.1501 148.7 86.5251 151.575C86.2251 151.75 85.9001 151.9 85.6001 152.075Z" fill="black"/>
<path d="M308.6 37.55C304.075 27.65 287.575 24.05 262.1 27.4C250.7 28.9 238.075 31.725 224.8 35.675C224.75 35.6 224.675 35.525 224.575 35.45C220.475 32.9 212.875 32.55 202.575 34.425C192.4 36.275 180.3 40.25 168.5 45.65C142.95 57.325 124.3 72.7 123.95 82.375C113.675 89.125 104.5 96.05 96.7747 102.925C77.5747 120 69.4747 134.825 73.9997 144.725C77.3997 152.225 87.6997 156.1 103.525 156.1C108.625 156.1 114.3 155.7 120.5 154.875C122.225 154.65 123.975 154.375 125.775 154.1C125.85 154.1 125.925 154.075 126 154.05C134.575 152.65 143.725 150.6 153.275 147.9C155.325 150.65 159.875 151.475 164.625 151.475C168.15 151.475 171.825 151.025 174.625 150.525C186.425 148.55 201.125 143.725 215.975 136.95C230.825 130.15 244.1 122.225 253.325 114.575C258.825 110.025 267.625 101.5 264.95 95.625C264.95 95.625 264.95 95.625 264.95 95.6C272.7 90.225 279.725 84.75 285.825 79.325C293.45 72.55 299.325 66.125 303.35 60.225C303.425 60.175 303.5 60.1 303.55 60.025C307.075 54.825 309.15 50.05 309.725 45.8C309.725 45.7 309.725 45.575 309.7 45.475C310.05 42.6 309.675 39.925 308.6 37.55ZM252.3 113.325C243.175 120.875 230.05 128.75 215.325 135.475C200.6 142.2 186.05 146.975 174.375 148.925C164.525 150.575 157.65 150.025 155.05 147.425C171.9 142.575 189.925 135.875 207.975 127.625C228.525 118.225 247.55 107.575 263.575 96.575C264.925 100.2 260.85 106.25 252.3 113.325ZM192.85 132.55L239.7 109.725C229.55 115.525 218.675 121.075 207.35 126.25C202.5 128.475 197.675 130.575 192.85 132.55ZM302.4 58.875C297.6 59.725 293.625 58.775 292.9 56.575C291.975 53.8 296.25 49.75 302.25 47.75C304.175 47.1 306.1 46.725 307.925 46.625C307.225 50.275 305.35 54.4 302.4 58.875ZM308.25 44.925C306.15 45 303.925 45.425 301.7 46.15C294.625 48.525 290.05 53.325 291.3 57.1C292.1 59.5 295 60.85 298.975 60.85C299.675 60.85 300.4 60.8 301.175 60.725C298.3 64.725 294.575 68.95 290.075 73.35C290.4 71.925 290.3 70.65 289.8 69.525C288.375 66.4 283.85 64.95 276.35 65.2C275.9 65.2 275.525 65.6 275.55 66.05C275.55 66.5 275.95 66.875 276.4 66.85C283.05 66.6 287.175 67.775 288.275 70.2C288.825 71.375 288.65 72.925 287.8 74.8C287.675 75.025 287.7 75.3 287.8 75.5C286.825 76.4 285.85 77.3 284.825 78.225C280.375 82.175 275.45 86.15 270.1 90.075C270.075 90 270.025 89.925 270 89.85C265.475 79.95 232.525 85.275 196.375 101.8C160.225 118.325 134.625 139.725 139.15 149.625C139.2 149.725 139.25 149.825 139.3 149.925C134.75 150.95 130.35 151.825 126.075 152.525C126 152.5 125.9 152.475 125.825 152.475C120.225 152.45 116.725 151.3 115.725 149.1C114.775 147.05 114.8 140.675 135.15 125.775C150 114.9 170.95 103.075 194.15 92.475C203.775 88.075 213.4 84.075 222.725 80.575C223.175 80.4 223.375 79.925 223.225 79.5C223.05 79.05 222.575 78.85 222.15 79C212.775 82.5 203.125 86.525 193.45 90.95C170.15 101.575 149.1 113.475 134.15 124.4C114.6 138.7 112.5 146.075 114.175 149.75C114.975 151.525 116.825 152.775 119.625 153.45C107.825 154.95 97.9747 154.95 90.3747 153.425C82.5247 151.85 77.4747 148.7 75.3747 144.1C73.2747 139.5 74.1997 133.625 78.1497 126.65C82.0247 119.775 88.6247 112.175 97.7747 104.05C106.2 96.55 116.35 89.025 127.775 81.7C133.15 78.45 145.75 70.9 158.2 64.275C163.725 61.45 169.425 58.675 175.225 56.025C177.625 54.925 180.025 53.85 182.425 52.825C192.1 48.8 202.875 44.675 211.1 41.65C229.475 35.3 246.975 30.925 262.3 28.925C268.425 28.125 274 27.725 279.05 27.725C284 27.725 288.4 28.125 292.225 28.875C300.075 30.45 305.125 33.6 307.225 38.2C308.15 40.2 308.475 42.45 308.25 44.925Z" fill="black"/>
<path d="M253.176 92.7749C250.376 92.7749 247.076 93.0749 243.326 93.6999C231.651 95.6499 217.101 100.425 202.376 107.15C187.651 113.875 174.526 121.75 165.401 129.3C156.676 136.525 152.601 142.7 154.226 146.275C155.851 149.825 163.201 150.8 174.376 148.925C186.051 146.975 200.601 142.2 215.326 135.475C230.051 128.75 243.176 120.875 252.301 113.325C261.026 106.1 265.101 99.9249 263.476 96.3499C262.376 93.9999 258.751 92.7749 253.176 92.7749Z" fill="#C8C8C8"/>
<path d="M181.125 142.175C180.25 142.175 179.35 141.9 178.6 141.375C176.625 139.975 176.175 137.225 177.575 135.275C177.8 134.95 183.5 127.075 197.9 118.525C199.975 117.3 202.65 117.975 203.9 120.05C205.125 122.125 204.45 124.8 202.375 126.05C189.725 133.55 184.75 140.3 184.7 140.35C183.825 141.55 182.475 142.175 181.125 142.175Z" fill="white"/>
<path d="M212 120.875C210.4 120.875 208.85 120 208.1 118.475C207.025 116.325 207.875 113.675 210.05 112.6L213.15 111.05C215.3 109.975 217.95 110.825 219.025 113C220.1 115.15 219.25 117.8 217.075 118.875L213.975 120.425C213.325 120.725 212.65 120.875 212 120.875Z" fill="white"/>
<path d="M238.026 112.775C215.501 123.075 197.776 135.55 191.501 144.7C199.076 142.325 207.176 139.2 215.326 135.475C230.051 128.75 243.176 120.875 252.301 113.325C256.601 109.775 259.776 106.45 261.676 103.6C254.276 105.925 246.251 109 238.026 112.775Z" fill="white"/>
<path d="M366.764 139.824C408.849 120.6 438.181 94.5393 432.277 81.6162C426.374 68.693 387.472 73.801 345.387 93.0252C303.302 112.249 273.971 138.31 279.874 151.233C285.777 164.156 324.679 159.048 366.764 139.824Z" fill="#C8C8C8"/>
<path d="M347.599 96.7002C386.649 78.8502 422.974 73.1751 432.724 82.7751C432.599 82.3751 432.474 82.0002 432.299 81.6252C426.399 68.7002 387.499 73.8002 345.399 93.0502C303.299 112.3 273.974 138.325 279.874 151.25C280.299 152.175 280.899 153.025 281.649 153.775C277.899 140.475 306.724 115.375 347.599 96.7002Z" fill="white"/>
<path d="M390.949 104.625C390.724 104.625 390.499 104.475 390.424 104.225C390.349 103.925 390.499 103.625 390.799 103.55C397.574 101.55 403.424 100.25 408.199 99.7001C408.499 99.6751 408.774 99.8751 408.799 100.175C408.824 100.475 408.624 100.75 408.324 100.775C403.624 101.325 397.824 102.6 391.099 104.575C391.049 104.625 390.999 104.625 390.949 104.625Z" fill="black"/>
<path d="M382.549 107.325C382.324 107.325 382.099 107.175 382.024 106.95C381.924 106.675 382.074 106.35 382.374 106.25C383.699 105.8 385.049 105.35 386.349 104.925C386.624 104.825 386.949 105 387.024 105.275C387.124 105.55 386.949 105.875 386.674 105.95C385.374 106.375 384.049 106.8 382.724 107.275C382.674 107.325 382.599 107.325 382.549 107.325Z" fill="black"/>
<path d="M364.041 103.866C368.324 102.437 371.219 99.5476 370.506 97.4127C369.794 95.2778 365.745 94.7056 361.462 96.1345C357.179 97.5635 354.284 100.453 354.997 102.587C355.709 104.722 359.758 105.295 364.041 103.866Z" fill="white"/>
<path d="M359.524 105.225C359.024 105.225 358.549 105.2 358.099 105.125C356.174 104.85 354.899 104.025 354.474 102.775C354.049 101.525 354.599 100.1 355.949 98.7251C357.224 97.4501 359.124 96.3501 361.274 95.6251C363.424 94.9001 365.599 94.6501 367.374 94.9001C369.299 95.1751 370.574 96.0001 370.999 97.2501C371.824 99.7001 368.824 102.85 364.199 104.4C362.599 104.95 360.974 105.225 359.524 105.225ZM365.999 95.9001C364.674 95.9001 363.174 96.1501 361.624 96.6501C359.624 97.3251 357.899 98.3251 356.724 99.4751C355.674 100.525 355.224 101.6 355.499 102.425C355.774 103.25 356.774 103.825 358.249 104.05C359.874 104.275 361.874 104.05 363.849 103.375C367.774 102.075 370.574 99.4251 369.949 97.6001C369.599 96.5001 368.049 95.9001 365.999 95.9001Z" fill="black"/>
<path d="M401.592 91.591C405.875 90.162 408.769 87.2729 408.057 85.138C407.345 83.0032 403.295 82.4309 399.013 83.8599C394.73 85.2889 391.835 88.1779 392.548 90.3128C393.26 92.4477 397.309 93.02 401.592 91.591Z" fill="white"/>
<path d="M397.075 92.9501C396.575 92.9501 396.1 92.9252 395.65 92.8502C393.725 92.5752 392.45 91.7501 392.025 90.5001C391.2 88.0501 394.2 84.9002 398.825 83.3502C400.975 82.6252 403.15 82.3751 404.925 82.6251C406.85 82.9001 408.125 83.7252 408.55 84.9752C409.375 87.4252 406.375 90.5751 401.75 92.1251C400.15 92.6751 398.55 92.9501 397.075 92.9501ZM403.55 83.6251C402.225 83.6251 400.725 83.8751 399.175 84.3751C395.25 85.6751 392.45 88.3251 393.075 90.1501C393.675 91.9751 397.5 92.4002 401.425 91.1002C405.35 89.8002 408.15 87.1501 407.525 85.3251C407.15 84.2251 405.6 83.6251 403.55 83.6251Z" fill="black"/>
<path d="M428.398 87.5497C424.123 88.9747 421.224 91.8747 421.949 93.9997C422.549 95.7997 425.524 96.4997 428.999 95.8247C431.224 92.5497 432.574 89.4997 432.949 86.7747C431.574 86.7497 429.998 86.9997 428.398 87.5497Z" fill="white"/>
<path d="M332.292 118.55C336.315 116.498 338.747 113.21 337.724 111.205C336.702 109.2 332.612 109.238 328.59 111.289C324.567 113.34 322.135 116.628 323.158 118.633C324.18 120.638 328.27 120.601 332.292 118.55Z" fill="white"/>
<path d="M326.473 120.675C324.573 120.675 323.198 120.05 322.598 118.9C321.998 117.725 322.323 116.225 323.473 114.675C324.548 113.225 326.248 111.85 328.273 110.825C332.623 108.6 336.948 108.675 338.148 111C339.323 113.3 336.848 116.875 332.498 119.075C330.473 120.1 328.373 120.675 326.573 120.7C326.523 120.675 326.498 120.675 326.473 120.675ZM334.298 110.275C332.723 110.275 330.723 110.775 328.748 111.775C326.873 112.725 325.323 113.975 324.348 115.3C323.473 116.5 323.173 117.625 323.573 118.4C323.973 119.175 325.023 119.6 326.523 119.6C328.173 119.575 330.098 119.05 331.973 118.1C335.648 116.225 338.023 113.2 337.148 111.475C336.773 110.675 335.698 110.275 334.298 110.275Z" fill="black"/>
<path d="M303.392 138.926C307.414 136.875 309.846 133.587 308.824 131.582C307.801 129.577 303.712 129.614 299.689 131.665C295.667 133.716 293.235 137.005 294.258 139.01C295.28 141.015 299.37 140.977 303.392 138.926Z" fill="white"/>
<path d="M297.574 141.05C295.674 141.05 294.299 140.425 293.699 139.275C292.524 136.95 294.999 133.4 299.349 131.2C301.374 130.175 303.474 129.6 305.274 129.575C305.299 129.575 305.324 129.575 305.349 129.575C307.249 129.575 308.624 130.2 309.224 131.35C309.824 132.525 309.499 134.025 308.349 135.575C307.274 137.025 305.574 138.4 303.549 139.425C301.524 140.45 299.424 141.025 297.624 141.05C297.624 141.05 297.599 141.05 297.574 141.05ZM305.374 130.65C305.349 130.65 305.324 130.65 305.324 130.65C303.674 130.675 301.749 131.2 299.874 132.15C296.199 134.025 293.824 137.05 294.699 138.775C295.074 139.525 296.149 139.975 297.599 139.975C297.624 139.975 297.649 139.975 297.649 139.975C299.299 139.95 301.224 139.425 303.099 138.475C304.974 137.525 306.524 136.275 307.499 134.95C308.374 133.75 308.674 132.625 308.274 131.85C307.874 131.075 306.824 130.65 305.374 130.65Z" fill="black"/>
<path d="M287.374 155.425C286.799 155.7 286.274 156.025 285.774 156.35C288.499 157.475 291.999 158.125 296.124 158.3C296.749 157.225 296.899 156.175 296.499 155.35C295.474 153.35 291.374 153.375 287.374 155.425Z" fill="white"/>
<path d="M432.724 81.3999C429.749 74.9499 418.974 72.5999 402.324 74.7749C394.874 75.7499 386.624 77.5749 377.924 80.1749C377.899 80.1249 377.849 80.0999 377.799 80.0499C372.299 76.6499 357.224 79.375 341.149 86.7249C324.474 94.3499 312.299 104.4 312.049 110.7C305.349 115.1 299.349 119.625 294.299 124.125C281.749 135.275 276.474 144.975 279.424 151.45C280.449 153.7 282.449 155.475 285.324 156.7C285.374 156.775 285.449 156.825 285.549 156.875C288.324 158 291.849 158.675 296.124 158.875C296.199 158.875 296.274 158.85 296.349 158.825C297.124 158.85 297.899 158.875 298.724 158.875C302.049 158.875 305.774 158.625 309.824 158.075C316.424 157.2 323.649 155.675 331.249 153.55C332.574 155.325 335.524 155.875 338.649 155.875C340.974 155.875 343.349 155.575 345.199 155.25C352.924 153.975 362.524 150.8 372.224 146.375C381.924 141.925 390.599 136.75 396.624 131.75C400.224 128.775 405.974 123.225 404.224 119.375C404.224 119.375 404.224 119.375 404.224 119.35C409.274 115.825 413.874 112.275 417.849 108.725C422.824 104.3 426.649 100.125 429.274 96.2749C429.349 96.2249 429.399 96.1749 429.424 96.1249C431.724 92.7249 433.074 89.5999 433.449 86.8249C433.449 86.7499 433.449 86.675 433.424 86.5999C433.674 84.7 433.424 82.9499 432.724 81.3999ZM295.799 157.775C292.349 157.575 289.399 157.075 286.999 156.25C287.199 156.125 287.399 156.025 287.599 155.925C291.274 154.05 295.124 153.925 295.999 155.625C296.349 156.3 296.124 157.125 295.799 157.775ZM395.974 130.95C389.999 135.9 381.424 141.025 371.799 145.425C362.174 149.825 352.674 152.95 345.049 154.225C338.574 155.275 334.074 154.925 332.399 153.225C343.399 150.075 355.174 145.675 366.974 140.275C380.424 134.125 392.849 127.175 403.324 119.975C404.249 122.325 401.574 126.3 395.974 130.95ZM420.599 104.9C420.849 103.925 420.799 103.025 420.449 102.275C419.499 100.225 416.549 99.2749 411.649 99.4499C411.349 99.4749 411.099 99.7249 411.124 100.025C411.149 100.325 411.399 100.55 411.699 100.55C416.049 100.4 418.749 101.175 419.474 102.75C419.824 103.525 419.724 104.525 419.149 105.75C419.074 105.925 419.099 106.1 419.174 106.25C418.549 106.85 417.899 107.425 417.224 108.025C414.324 110.6 411.099 113.2 407.599 115.775C407.574 115.7 407.549 115.65 407.524 115.575C404.574 109.1 383.024 112.6 359.424 123.375C335.824 134.15 319.074 148.15 322.024 154.625C322.074 154.725 322.099 154.8 322.149 154.9C319.199 155.575 316.349 156.125 313.574 156.575C313.474 156.5 313.349 156.45 313.224 156.45C309.549 156.45 307.274 155.675 306.624 154.25C305.999 152.9 306.024 148.725 319.324 139C329.049 131.9 342.724 124.175 357.899 117.25C364.199 114.375 370.474 111.75 376.574 109.475C376.874 109.375 376.999 109.05 376.899 108.775C376.799 108.475 376.474 108.35 376.199 108.45C370.074 110.725 363.774 113.35 357.449 116.25C342.224 123.225 328.449 130.975 318.699 138.125C305.924 147.475 304.549 152.3 305.649 154.7C306.199 155.925 307.474 156.75 309.449 157.175C304.799 157.775 300.624 158.025 296.949 157.9C297.374 156.875 297.374 155.925 296.974 155.15C295.774 152.825 291.449 152.75 287.099 154.975C286.599 155.225 286.099 155.5 285.649 155.8C283.049 154.65 281.249 153.075 280.324 151.075C278.949 148.075 279.549 144.225 282.124 139.675C284.649 135.175 288.974 130.2 294.949 124.9C300.724 119.75 307.749 114.575 315.674 109.575C319.324 107.375 325.949 103.45 332.699 99.7999C336.849 97.6249 341.149 95.5249 345.574 93.4999C347.774 92.4999 349.949 91.525 352.124 90.6C357.499 88.4 363.224 86.2 367.899 84.475C380.299 80.125 392.124 77.1249 402.449 75.7749C406.449 75.2499 410.099 74.9749 413.399 74.9749C416.624 74.9749 419.524 75.2249 422.024 75.7499C427.149 76.7999 430.449 78.85 431.824 81.85C432.424 83.15 432.649 84.625 432.499 86.2249C431.124 86.275 429.674 86.5249 428.199 87.0249C423.574 88.5749 420.574 91.7249 421.399 94.1749C421.924 95.7499 423.824 96.6249 426.424 96.6249C426.899 96.6249 427.399 96.5999 427.924 96.5249C426.049 99.1749 423.599 101.975 420.599 104.9ZM428.674 95.3249C425.549 95.8749 422.949 95.2749 422.474 93.8249C421.849 91.9999 424.649 89.3499 428.574 88.0499C429.849 87.6499 431.099 87.3999 432.299 87.3249C431.849 89.7249 430.624 92.3999 428.674 95.3249Z" fill="black"/>
<path d="M396.524 117.5C394.699 117.5 392.524 117.7 390.099 118.1C382.474 119.375 372.974 122.5 363.349 126.9C353.724 131.3 345.149 136.425 339.174 141.375C333.474 146.1 330.799 150.15 331.874 152.475C332.924 154.8 337.724 155.425 345.049 154.225C352.674 152.95 362.174 149.825 371.799 145.425C381.424 141.025 389.999 135.9 395.974 130.95C401.674 126.225 404.349 122.175 403.274 119.85C402.524 118.275 400.174 117.5 396.524 117.5Z" fill="#C8C8C8"/>
<path d="M356.174 151.475C361.149 149.925 366.449 147.875 371.799 145.425C381.424 141.025 389.999 135.9 395.974 130.95C398.824 128.6 400.899 126.4 402.149 124.525C397.274 126.05 392.024 128.075 386.599 130.55C371.849 137.3 360.249 145.5 356.174 151.475Z" fill="white"/>
<path d="M349.424 149.775C348.849 149.775 348.274 149.6 347.774 149.25C346.474 148.325 346.199 146.55 347.099 145.25C347.249 145.025 350.974 139.875 360.399 134.3C361.749 133.5 363.524 133.95 364.324 135.3C365.124 136.65 364.674 138.4 363.324 139.225C355.049 144.125 351.799 148.525 351.774 148.575C351.199 149.375 350.324 149.775 349.424 149.775Z" fill="white"/>
<path d="M369.6 135.85C368.55 135.85 367.55 135.275 367.05 134.275C366.35 132.875 366.9 131.15 368.325 130.425L370.35 129.4C371.75 128.7 373.475 129.25 374.2 130.675C374.9 132.075 374.35 133.8 372.925 134.525L370.9 135.55C370.475 135.75 370.05 135.85 369.6 135.85Z" fill="white"/>
<path d="M429.9 409.975L396.525 368.375C396.525 368.375 391.85 362.15 392.225 355.775C392.6 349.4 393.35 346.475 388.775 342.475L384.775 339.65C384.775 339.65 381.85 332.725 378.1 330.65C374.35 328.575 372.175 330.55 371.6 332.35C371.6 332.35 367.525 331.75 366.1 333.9C364.675 336.05 365.45 338.825 365.45 338.825C365.45 338.825 362.6 339.475 361.5 342.05C360.425 344.625 361.375 347.125 361.375 347.125C361.375 347.125 359.175 348.225 358.5 349.975C357.825 351.725 356.175 355.05 363.25 362.65C370.325 370.225 374.25 370.475 379.925 379.575C385.6 388.65 395.675 405.775 401.025 421.675L429.9 409.975Z" fill="white"/>
<path d="M367.625 299.625C351.25 293.45 337.375 290.7 337.375 290.7L356.5 243.425C356.5 243.425 372.9 245.7 389.351 250L367.625 299.625Z" fill="white"/>
<path d="M419.275 262.875C421.4 254.325 405.275 247.625 388.475 243.05C387.775 242.85 387.075 242.675 386.375 242.5L364.65 292.125C375.175 296.1 386.75 301.5 396.3 308.525" fill="white"/>
<path d="M430.475 409.475L397.1 367.875C393.775 363.7 392.35 358.225 393.2 352.85C393.575 350.525 393.5 348.55 392.975 346.825C392 343.6 388.1 340.575 385.075 338.95C385.025 338.925 385 338.9 384.95 338.9C384.95 338.8 384.925 338.7 384.875 338.6C384.725 338.325 384.2 337.325 383.425 336.1L419.95 263.225C420.025 263.1 420.05 262.95 420.025 262.8C421.6 255.325 411.025 248.45 388.625 242.35C387.925 242.15 387.225 241.95 386.525 241.775C386.175 241.675 385.8 241.85 385.65 242.2L383.225 247.725C369.25 244.45 356.75 242.7 356.6 242.675C356.25 242.625 355.925 242.8 355.8 243.125L336.675 290.4C336.575 290.625 336.6 290.85 336.7 291.05C336.825 291.25 337 291.375 337.225 291.425C337.35 291.45 351.225 294.225 367.35 300.325C367.45 300.35 367.525 300.375 367.625 300.375C367.925 300.375 368.2 300.2 368.3 299.925L370.35 295.225C380.2 299.35 388.6 303.9 395.4 308.85L382.45 334.675C380.75 332.175 378.375 329.35 376.15 328.875C374.025 328.3 372.65 329.25 371.9 330.15C371.325 330.825 371 331.55 370.875 331.925C369.6 331.5 368.475 331.525 367.5 331.975C364.3 333.5 364.1 336.5 364.525 338.375C363.675 338.675 362.325 339.35 361.375 340.775C360.35 342.3 360.05 344.3 360.475 346.675C359.425 347.175 357.625 348.6 357.35 352.55C357.05 356.7 359.75 360.975 366.4 366.675L358.1 383.225C357.9 383.6 358.05 384.05 358.425 384.225C358.525 384.275 358.625 384.3 358.75 384.3C359.025 384.3 359.275 384.15 359.425 383.9L367.575 367.675C368.7 368.6 369.925 369.575 371.25 370.575C384.275 380.475 400.15 421.55 400.3 421.975C400.425 422.275 400.7 422.45 401 422.45C401.1 422.45 401.175 422.45 401.25 422.4C401.625 422.25 401.825 421.8 401.675 421.425C401.625 421.325 397.6 410.85 392 399.3C384.45 383.725 377.75 373.65 372.125 369.375C370.725 368.3 369.425 367.275 368.25 366.3L371.625 359.575C372.45 359.85 373.3 360.05 374.1 360.05C375.15 360.05 376.075 359.7 376.675 358.8C377.15 360.4 378.05 361.8 379.375 362.95C379.525 363.075 379.7 363.125 379.875 363.125C380.075 363.125 380.275 363.05 380.45 362.875C380.725 362.575 380.675 362.1 380.375 361.825C375.125 357.2 379.275 349.175 380.6 346.95L384.05 350.125C384.35 350.4 384.825 350.375 385.1 350.075C385.375 349.775 385.35 349.3 385.05 349.025L379.475 343.85C379.275 343.65 379 343.6 378.75 343.675C374.725 344.9 372.375 344.6 371.125 344.1C370.5 343.875 370.1 343.575 369.825 343.325C371.475 342.275 375.675 339.65 378.425 338.8C379.65 338.425 381.9 339 384.35 340.3C387.95 342.225 390.85 345.025 391.525 347.3C391.975 348.825 392.025 350.575 391.7 352.675C390.775 358.475 392.325 364.375 395.925 368.875L429.3 410.475C429.45 410.65 429.65 410.75 429.875 410.75C430.05 410.75 430.2 410.7 430.325 410.55C430.675 410.275 430.725 409.8 430.475 409.475ZM345.95 271.575L347.325 275.85C347.975 277.825 350.125 278.9 352.1 278.25C354.075 277.6 355.15 275.45 354.5 273.475L350.325 260.825C350.325 260.8 350.325 260.8 350.3 260.775L357 244.25C359.225 244.575 367.475 245.825 377.375 247.95L358.1 295.5C348.525 292.425 340.925 290.675 338.4 290.15L345.95 271.575ZM365.625 291.725L386.775 243.4C387.275 243.525 387.75 243.675 388.25 243.8C409.675 249.65 420.15 256.2 418.525 262.725V262.75L409.4 280.95L405.6 269.225C404.6 266.075 401.2 264.35 398.05 265.35C394.9 266.35 393.175 269.75 394.175 272.9L401.7 296.275L396.075 307.475C388.025 301.675 377.8 296.375 365.625 291.725ZM375.5 357.8C374.625 359.525 371.05 357.775 369.525 357.025C369.3 356.9 369.125 356.825 368.975 356.75C367.625 356.125 363.7 355.7 363.25 355.65C362.825 355.625 362.475 355.925 362.425 356.325C362.4 356.75 362.7 357.1 363.1 357.15C364.225 357.275 367.375 357.675 368.35 358.125C368.5 358.2 368.675 358.275 368.875 358.375C369.25 358.55 369.725 358.775 370.275 359.025L367.125 365.3C361.125 360.1 358.6 356.175 358.85 352.65C359.125 349.075 360.75 348.15 361.3 347.925L364.325 348.75C368.575 349.9 372.625 352.05 376.075 355C376.125 355.1 376.45 355.95 375.5 357.8ZM368.325 342.5C368.025 342.7 367.925 343.125 368.075 343.45C368.15 343.6 369.375 346.025 373.825 346.025C375.175 346.025 376.8 345.8 378.8 345.225L379.5 345.875C379.025 346.65 377.925 348.55 377.15 350.875C377.125 350.9 377.1 350.9 377.1 350.925C376.6 351.35 374 350.9 371.525 349.925C371.425 349.875 371.325 349.875 371.225 349.875C369.15 348.775 366.95 347.9 364.725 347.3L362.025 346.575C361.625 344.525 361.825 342.85 362.65 341.625C363.725 339.975 365.575 339.625 365.6 339.625C365.675 339.6 365.75 339.575 365.825 339.55C366.35 339.45 368.25 339.275 370.775 340.95C369.4 341.775 368.425 342.425 368.325 342.5ZM372.175 340.1C369.45 338.075 367.175 337.925 366.025 338.025C365.775 336.95 365.55 334.5 368.175 333.25C369.8 332.5 372.125 333.9 373.775 335.225C374.95 336.175 375.95 337.175 376.575 337.85C375.125 338.45 373.55 339.3 372.175 340.1ZM378.1 337.3C377.55 336.7 376.3 335.35 374.725 334.1C373.875 333.425 373.075 332.9 372.3 332.5C372.375 332.325 372.6 331.65 373.075 331.1C373.775 330.275 374.675 330.025 375.8 330.325C375.825 330.325 375.825 330.325 375.85 330.325C378.15 330.8 381.125 335.15 382.775 337.9C380.9 337.2 379.25 336.975 378.1 337.3Z" fill="white"/>
<path d="M391.317 286.967L384.317 275.642C383.217 273.867 383.767 271.542 385.542 270.442C387.317 269.342 389.642 269.892 390.742 271.667L397.742 282.992C398.842 284.767 398.292 287.092 396.517 288.192C394.742 289.267 392.392 288.717 391.317 286.967Z" fill="black"/>
<path d="M360.067 286.967L353.067 275.642C351.967 273.867 352.517 271.542 354.292 270.442C356.067 269.342 358.392 269.892 359.492 271.667L366.492 282.992C367.592 284.767 367.042 287.092 365.267 288.192C363.492 289.267 361.142 288.717 360.067 286.967Z" fill="black"/>
<path d="M71.7239 431.775L114.624 376.125C114.624 376.125 122.149 373.975 122.099 373.35C122.099 373.35 121.599 377.6 122.724 377.65C123.849 377.7 128.349 369.95 128.349 369.95C128.349 369.95 132.299 368.2 130.099 364.15C130.099 364.15 132.349 362.275 131.599 360.45C130.849 358.625 131.049 357.9 131.049 357.9C131.049 357.9 134.774 356.9 134.399 352.15C134.399 352.15 135.974 351.15 135.799 351.275C135.624 351.4 129.624 341.65 129.624 341.65C129.624 341.65 119.374 343.025 117.874 343.65C116.374 344.275 58.1239 406.025 58.1239 406.025C58.1239 406.025 54.1239 414.775 60.2489 423.4C66.3739 432.025 71.7239 431.775 71.7239 431.775Z" fill="white"/>
<path d="M147.35 259.25C147.35 241.475 77.0251 248.925 77.0251 248.925L69.8501 299.425C69.8501 299.425 108.025 297.6 136.025 309.1" fill="white"/>
<path d="M148.099 259.25C148.099 257.15 147.199 255.25 145.424 253.65C140.149 248.875 126.974 246.525 106.324 246.625C91.0493 246.7 77.0993 248.15 76.9493 248.175C76.5993 248.225 76.3243 248.475 76.2743 248.825L69.0993 299.325C69.0743 299.525 69.1493 299.75 69.2993 299.925C69.4493 300.1 69.6743 300.175 69.8993 300.175C70.2743 300.15 107.699 298.5 135.174 309.55L128.024 341.1C125.224 341.425 119.324 342.2 117.524 343C117.099 343.2 115.999 343.7 85.9493 375.3C71.1493 390.875 56.4493 406.525 56.2993 406.675C55.9993 406.975 56.0243 407.45 56.3243 407.725C56.4743 407.85 56.6743 407.925 56.8493 407.925C57.0493 407.925 57.2493 407.85 57.3743 407.675C80.6243 382.95 115.949 345.725 118.149 344.35C119.849 343.625 126.299 342.8 129.199 342.475L134.899 351.125C134.774 351.15 134.649 351.175 134.524 351.2C134.449 351.175 134.374 351.15 134.299 351.15C134.174 351.15 134.074 351.2 133.974 351.25C132.399 351.325 130.149 350.8 128.774 347.625C128.699 347.45 128.524 347.3 128.324 347.225C128.099 347.15 127.874 347.2 127.699 347.3L119.199 352.425C118.849 352.625 118.724 353.1 118.949 353.45C119.149 353.8 119.624 353.925 119.974 353.7L126.124 349.975L125.099 354.525C124.399 354.875 123.624 355.25 122.874 355.625C117.524 358.425 117.024 359.775 117.249 360.7C117.324 361.025 117.549 361.475 118.224 361.75C118.624 361.9 119.124 361.975 119.749 361.975C120.049 361.975 120.374 361.95 120.724 361.925C120.449 362.1 120.174 362.3 119.899 362.5C115.949 365.325 115.524 366.475 115.624 367.25C115.649 367.525 115.824 368 116.499 368.275C116.849 368.425 117.399 368.5 118.049 368.5C118.974 368.5 120.149 368.375 121.399 368.125C116.624 371.6 116.949 372.3 117.174 372.775C117.299 373 117.524 373.325 118.074 373.525C118.399 373.65 118.799 373.7 119.249 373.7C119.324 373.7 119.424 373.7 119.499 373.7C117.574 374.675 114.549 375.7 111.349 375.05C110.949 374.95 110.549 375.225 110.474 375.625C110.374 376.025 110.649 376.425 111.049 376.5C111.774 376.65 112.524 376.725 113.224 376.75L71.1493 431.325C70.8743 431.65 70.9493 432.125 71.2743 432.375C71.3993 432.475 71.5743 432.525 71.7243 432.525C71.9493 432.525 72.1743 432.425 72.3243 432.25L115.199 376.625C117.324 376.325 119.149 375.575 120.474 374.875L116.949 390.725C116.874 391.125 117.124 391.525 117.524 391.625C117.599 391.65 117.649 391.65 117.699 391.65C118.024 391.65 118.349 391.425 118.424 391.05L121.449 377.5C121.674 377.9 122.024 378.2 122.474 378.35C122.549 378.4 122.649 378.425 122.774 378.425C123.424 378.425 124.624 377.4 129.399 369.775C130.724 368.775 131.474 367.7 131.599 366.6C131.724 365.625 131.349 364.825 130.974 364.35C133.124 362.35 132.474 359.825 131.674 358.475C131.974 358.3 132.249 358.15 132.499 357.975C134.449 356.7 134.999 354.45 135.074 352.55C135.849 352.4 136.374 352.2 136.374 352.2C136.574 352.1 136.749 351.925 136.799 351.725C136.849 351.525 136.824 351.275 136.699 351.1L130.199 341.225C130.074 341.025 129.849 340.925 129.599 340.9L148.024 259.525C148.074 259.45 148.099 259.35 148.099 259.25ZM122.724 376.75C122.699 376.725 122.699 376.675 122.674 376.65C122.399 375.825 123.224 373.8 123.924 372.65C123.924 372.625 123.949 372.625 123.949 372.6C124.774 372.3 125.624 371.9 126.524 371.475C124.949 373.875 123.399 376.05 122.724 376.75ZM130.099 366.425C129.999 367.1 129.324 368.475 125.899 370.125C121.849 372.1 119.674 372.3 118.849 372.2C119.749 371.225 122.524 369.15 124.974 367.475C125.099 367.4 125.174 367.275 125.224 367.175C126.974 366.625 128.624 365.95 129.774 365.25C129.924 365.45 130.199 365.875 130.099 366.425ZM129.649 363.525C126.974 365.625 118.699 367.425 117.149 366.9C117.599 365.95 120.874 363.45 124.649 361.15C126.649 360.6 128.699 359.875 130.324 359.15C130.674 359.7 131.799 361.825 129.649 363.525ZM131.674 356.75C130.249 357.675 127.274 358.875 124.399 359.65C124.324 359.65 124.249 359.675 124.199 359.7C120.499 360.675 119.024 360.475 118.699 360.325C118.799 360.075 119.449 359.05 123.824 356.8C126.449 355.45 129.099 354.325 129.124 354.325C129.499 354.175 129.674 353.725 129.524 353.35C129.374 352.975 128.924 352.8 128.549 352.95C128.549 352.95 127.849 353.25 126.824 353.7L127.849 349.125C129.449 351.975 131.724 352.675 133.524 352.7C133.474 354.175 133.049 355.85 131.674 356.75ZM126.474 304.975C102.799 298.05 75.9493 298.475 70.7243 298.625L72.7993 284L90.8743 274.3C95.0493 272.05 96.6493 266.8 94.3993 262.625C92.1493 258.45 86.8993 256.85 82.7243 259.1L75.7993 262.825L77.6743 249.6C83.5993 249.025 132.799 244.575 144.324 254.65L126.474 304.975Z" fill="white"/>
<path d="M121.024 283.175L102.649 292.8C99.7742 294.3 96.2242 293.175 94.7242 290.325C93.2242 287.45 94.3492 283.9 97.1992 282.4L115.574 272.775C118.449 271.275 121.999 272.4 123.499 275.25C124.999 278.125 123.874 281.675 121.024 283.175Z" fill="black"/>
<path d="M242.775 406.9L218.1 361.9L199.825 330.025L188.975 325.125L180.2 333.025L181.825 333.825C181.825 333.825 180.575 338.325 184.125 341.075C184.125 341.075 180.575 343.275 183.25 346.825C183.25 346.825 180.7 347.7 182.3 350.875L183.425 354C183.425 354 185.8 361.45 186.525 361.675C187.25 361.875 188.675 360.5 188.675 360.5L189.125 358.125L195.125 362.3L222.25 426.25C222.25 426.25 231.375 426.875 237.25 420.375C243.65 413.3 242.775 406.9 242.775 406.9Z" fill="white"/>
<path d="M192.65 240.9C215.1 262.4 253.475 265.175 253.475 265.175L252.6 308.4C252.6 308.4 219.1 311.4 191 291.975" fill="white"/>
<path d="M253.55 264.45C253.45 264.45 243.875 263.725 231.675 260.4C220.475 257.325 204.75 251.4 193.275 240.45C193.15 240.275 192.925 240.175 192.7 240.15C192.3 240.125 191.95 240.45 191.925 240.875L189.05 324.35C188.825 324.325 188.6 324.375 188.45 324.55L179.675 332.45C179.5 332.6 179.4 332.8 179.425 333.025C179.45 333.25 179.55 333.475 179.725 333.6C179.75 333.6 180.2 333.95 180.925 334.3C180.5 336.15 180.425 338.525 182.025 340.25C182.225 340.45 182.45 340.675 182.7 340.925C181.6 342.025 180.35 344.275 181.875 346.775C181.4 347.15 180.875 347.8 180.75 348.75C180.625 349.8 181.025 350.95 181.925 352.175C181.925 352.2 181.925 352.225 181.95 352.275C184.975 361.775 185.775 362.45 186.4 362.45C186.45 362.45 186.5 362.45 186.575 362.475C187.025 362.425 187.425 362.25 187.75 361.95L187.275 375.775C187.25 376.2 187.575 376.525 188.025 376.55C188.425 376.55 188.75 376.225 188.775 375.825L189.325 359.55C190.425 360.55 192.025 361.775 194 362.6L221.425 427.275C221.55 427.55 221.825 427.725 222.125 427.725C222.225 427.725 222.325 427.7 222.4 427.675C222.775 427.525 222.95 427.075 222.8 426.7L195.9 363.225C196.6 363.4 197.325 363.5 198.075 363.55C198.1 363.55 198.1 363.55 198.125 363.55C198.525 363.55 198.85 363.25 198.875 362.875C198.9 362.45 198.6 362.1 198.175 362.075C194.9 361.9 192.225 360.1 190.6 358.675C191.05 358.825 191.475 358.9 191.85 358.9C191.9 358.9 191.975 358.9 192.05 358.875C192.625 358.825 192.925 358.575 193.1 358.375C193.45 357.975 193.925 357.375 190.2 352.825C191.975 353.675 193.625 354.225 194.625 354.225C194.725 354.225 194.8 354.225 194.825 354.2C195.575 354.1 195.85 353.675 195.95 353.425C196.25 352.725 196.15 351.475 193.025 347.75C192.8 347.475 192.575 347.225 192.375 346.975C193.225 347.3 194 347.475 194.575 347.475C194.675 347.475 194.775 347.475 194.875 347.45C195.6 347.35 195.95 346.975 196.1 346.675C196.55 345.825 196.4 344.425 191.925 340.35C191.275 339.775 190.625 339.2 190.025 338.7L190.175 334L195.2 339.15C195.475 339.45 195.95 339.475 196.25 339.175C196.55 338.9 196.575 338.425 196.275 338.125L189.35 331.025C189.2 330.875 189 330.8 188.775 330.8C188.55 330.8 188.35 330.9 188.225 331.075C186.05 333.8 183.725 333.725 182.225 333.225C182.15 333.175 182.1 333.15 182 333.125C181.95 333.125 181.9 333.1 181.85 333.1C181.675 333.025 181.525 332.975 181.4 332.9L189.1 325.975C191.825 327.025 197.875 329.45 199.325 330.6C201.1 332.475 225.875 377.425 242.1 407.25C242.225 407.5 242.475 407.65 242.75 407.65C242.875 407.65 243 407.625 243.1 407.525C243.475 407.325 243.6 406.875 243.4 406.5C243.3 406.325 233.025 387.45 222.65 368.65C201.6 330.475 200.625 329.725 200.275 329.425C198.725 328.175 193.1 325.925 190.5 324.9L191.6 293.275C205.95 302.875 221.55 306.7 232.225 308.2C238.525 309.1 243.875 309.3 247.525 309.3C250.725 309.3 252.6 309.125 252.675 309.15C253.05 309.125 253.35 308.8 253.35 308.425L254.225 265.2C254.25 264.825 253.95 264.475 253.55 264.45ZM186.8 360.775C186.775 360.8 186.75 360.825 186.725 360.85C186.25 359.975 185.3 357.45 184.35 354.7C184.375 354.7 184.375 354.725 184.4 354.725C185.15 355.375 185.9 355.95 186.6 356.475C186.6 356.525 186.625 356.575 186.625 356.6C187 357.9 187.3 360.05 186.8 360.775ZM191.675 357.375C190.85 357.25 188.8 356.525 185.375 353.575C182.475 351.1 182.175 349.625 182.25 348.95C182.3 348.425 182.625 348.075 182.825 347.925C183.775 348.875 185.2 349.95 186.8 350.925C186.825 351.05 186.875 351.15 186.975 351.225C188.9 353.5 191.05 356.225 191.675 357.375ZM194.6 352.725C192.925 352.825 185.4 349 183.375 346.3C181.7 344.1 183.4 342.3 183.85 341.9C185.225 343 187 344.2 188.775 345.225C189.2 345.675 190.5 347.025 191.775 348.55C194.05 351.25 194.5 352.35 194.6 352.725ZM182.375 334.775C184.125 335.2 186.5 335.075 188.75 332.75L188.6 337.475C187.725 336.775 187.15 336.325 187.125 336.325C186.8 336.075 186.325 336.15 186.075 336.475C185.825 336.8 185.9 337.275 186.225 337.525C190.825 341.025 194.775 344.9 194.8 345.95C194.45 346.05 192.95 345.85 189.525 343.9C186.925 342.425 184.3 340.5 183.15 339.225C182.05 338 182.05 336.25 182.375 334.775ZM251.9 307.7C249.675 307.825 242.2 308.1 232.425 306.725C222.425 305.3 208.025 301.825 194.5 293.375L198.525 246.775C204.3 251.025 210.65 254.325 216.75 256.875L229.25 277.725C230.95 280.55 234.65 281.475 237.475 279.8C240.3 278.125 241.225 274.4 239.55 271.575L234.15 262.575C243.25 264.85 250.5 265.675 252.725 265.875L251.9 307.7Z" fill="white"/>
<path d="M208.074 286.625L201.074 275.3C199.974 273.525 200.524 271.2 202.299 270.1C204.074 269 206.399 269.55 207.499 271.325L214.499 282.65C215.599 284.425 215.049 286.75 213.274 287.85C211.499 288.925 209.149 288.375 208.074 286.625Z" fill="black"/>
<path d="M173.825 431.3L169.35 353.9C169.35 353.9 174.025 351.25 174.75 347.4C175.475 343.55 176.6 333.525 170.975 330.525L169.075 332.325C169.075 332.325 168.55 327.925 165.9 328.225C163.25 328.525 162.925 331.75 162.925 331.75C162.925 331.75 161.825 327.025 159.025 327.275C156.225 327.55 156.4 331.2 156.4 331.2C156.4 331.2 154.125 328.3 152.25 329.775C150.375 331.25 150.575 334.75 150.575 334.75C150.575 334.75 145.75 336.75 143.75 340.5C141.75 344.25 144.375 348.25 149.125 351.75C149.125 351.75 151.625 353.25 149.25 362.625C146.875 372 138.75 432.875 138.75 432.875C138.75 432.875 141.475 441.65 156.85 443.025C172.225 444.4 173.825 431.3 173.825 431.3Z" fill="white"/>
<path d="M171.3 353.4C172.775 352.425 174.8 351.1 175.525 347.55C176.025 345.1 176.225 341.975 176.075 339.2C175.95 336.85 175.525 333.7 174.175 331.875C173.575 331.05 172 329.65 170.4 330.125C170.125 330.225 169.875 330.35 169.625 330.525C169.45 329.775 169.1 328.95 168.475 328.35C167.8 327.7 166.925 327.4 165.875 327.475C165.05 327.525 164.3 327.95 163.675 328.675C163.45 328.95 163.225 329.25 163.05 329.6C162.975 329.45 162.9 329.275 162.825 329.125C161.925 327.35 160.575 326.45 158.975 326.55C157.55 326.625 156.525 327.825 155.925 330.125C155.5 329.675 154.975 329.25 154.325 329C153.55 328.725 152.75 328.775 151.95 329.15C151.325 329.45 150.575 330.325 149.7 334.125C148.3 334.925 140.375 339.875 142.1 345.225C143.05 348.175 145.125 349.85 146.8 351.175C148.2 352.3 149.325 353.175 149.425 354.45C149.65 357.125 141.25 411.9 138 432.775C137.925 433.175 138.225 433.55 138.625 433.625C138.675 433.625 138.7 433.625 138.75 433.625C139.125 433.625 139.45 433.375 139.475 433.025C139.95 429.975 151.2 357.75 150.925 354.35C150.775 352.45 149.3 351.275 147.75 350.025C146.175 348.75 144.35 347.3 143.55 344.775C142.475 341.35 146.925 337.8 149.275 336.2C149.25 336.35 149.225 336.475 149.2 336.625C148.625 339.8 148.275 342.925 148.275 342.95C148.225 343.35 148.525 343.725 148.925 343.775C148.95 343.775 148.975 343.775 149 343.775C149.375 343.775 149.7 343.5 149.775 343.125C150.4 337.5 151.7 331.075 152.6 330.5C153.025 330.3 153.4 330.25 153.8 330.4C154.6 330.7 155.275 331.7 155.525 332.175C155.25 334.2 155.3 336 155.3 336.075C155.3 336.475 155.65 336.8 156.05 336.8C156.475 336.8 156.825 336.45 156.8 336.025C156.725 332.875 157.4 328.15 159.075 328.05C161.525 327.9 162.2 331.825 162.2 331.875C162.2 331.925 162.225 331.95 162.225 332C162.075 332.875 162.025 333.825 162.1 334.8C162.125 335.2 162.475 335.5 162.85 335.5C162.875 335.5 162.875 335.5 162.95 335.475C163.35 335.45 163.65 335.1 163.625 334.675C163.475 332.675 163.95 330.7 164.85 329.65C165.1 329.375 165.5 329 166 328.975C166.6 328.925 167.075 329.075 167.45 329.425C168.225 330.2 168.375 331.75 168.35 332.3C168.35 332.4 168.35 332.5 168.4 332.6C168.15 333.45 167.975 334.525 167.9 335.825C167.875 336.225 168.175 336.575 168.6 336.6C169 336.625 169.35 336.325 169.375 335.9C169.575 332.225 170.525 331.675 170.825 331.575C171.5 331.35 172.5 332.175 172.95 332.775C174.8 335.3 175 342.425 174.025 347.25C173.425 350.175 171.85 351.225 170.45 352.125C169.825 352.525 169.25 352.9 168.8 353.4C168.375 353.875 167.775 354.575 170.35 393.2C171.625 412.15 173.05 431.15 173.075 431.35C173.1 431.75 173.425 432.05 173.825 432.05C173.85 432.05 173.85 432.05 173.925 432.05C174.35 432.025 174.65 431.675 174.625 431.25C172.4 401.925 169.35 357.525 170.05 354.325C170.35 354.025 170.8 353.725 171.3 353.4Z" fill="black"/>
<path d="M165.7 383.75C165.45 383.425 164.975 383.375 164.65 383.65C164.325 383.9 164.275 384.375 164.55 384.7L166.375 386.875C166.525 387.05 166.725 387.15 166.95 387.15C167.1 387.15 167.275 387.1 167.425 386.975C167.75 386.725 167.8 386.25 167.525 385.925L165.7 383.75Z" fill="black"/>
<path d="M164.225 389.3C163.975 388.95 163.5 388.875 163.175 389.125C162.825 389.375 162.75 389.85 163 390.175L165.5 393.675C165.625 393.9 165.875 394 166.1 394C166.25 394 166.4 393.95 166.55 393.85C166.9 393.6 166.975 393.125 166.725 392.8L164.225 389.3Z" fill="black"/>
<path d="M339.851 395.799L324.401 335.049L326.351 312.574C326.351 312.574 327.851 306.399 326.851 302.649C325.851 298.899 325.026 298.824 324.426 298.824C323.851 298.824 324.501 291.024 322.801 291.474C321.101 291.924 317.501 304.824 316.426 307.674C315.351 310.499 313.626 313.974 312.351 313.074C311.076 312.174 308.826 307.599 307.751 300.424C306.676 293.249 304.151 286.199 302.526 287.224C300.901 288.249 301.451 295.999 301.451 295.999C301.451 295.999 299.601 291.099 298.201 291.799C296.826 292.499 300.701 318.074 299.101 319.824C299.101 319.824 296.501 318.674 294.501 315.999C292.501 313.324 286.876 308.799 285.151 311.799C285.151 311.799 286.076 315.499 290.826 321.499C295.576 327.499 303.251 336.174 303.251 336.174L307.101 397.749L339.851 395.799Z" fill="white"/>
<path d="M340.552 395.599L325.127 334.949C325.177 333.449 325.977 317.224 326.552 313.249C326.577 313.074 326.627 312.774 326.702 312.399C327.852 306.074 328.677 298.724 324.927 297.999C324.827 297.974 324.702 297.999 324.602 298.024C324.877 292.049 323.977 290.924 322.927 290.724C321.052 290.399 319.977 293.674 317.877 300.524C316.952 303.574 316.002 306.724 314.977 309.074C313.577 312.274 312.752 312.374 312.527 312.324C310.902 311.974 309.252 304.524 308.177 299.574C306.327 291.099 305.052 285.949 302.402 286.474C302.077 286.549 301.577 286.749 301.202 287.349C300.602 288.299 300.427 290.199 300.527 292.549C299.902 291.724 299.127 291.049 298.227 291.049C297.952 291.049 297.702 291.174 297.527 291.374C296.777 292.174 296.952 294.824 297.902 304.199C298.452 309.649 299.302 317.849 298.652 319.199C298.077 319.024 296.527 317.324 295.502 316.174C292.427 312.749 288.227 308.074 284.677 311.249C283.327 312.449 284.802 315.199 296.302 329.049C299.127 332.449 302.302 336.274 302.602 337.074C302.752 339.724 306.227 395.374 306.377 397.774C306.402 398.174 306.727 398.474 307.127 398.474C307.127 398.474 307.152 398.474 307.227 398.499C307.627 398.474 307.952 398.124 307.927 397.699C307.877 397.099 304.227 338.624 304.152 336.949C304.102 336.149 302.777 334.449 297.502 328.099C294.852 324.899 291.827 321.249 289.527 318.199C286.302 313.949 285.852 312.649 285.827 312.274C288.052 310.449 291.052 313.424 294.427 317.174C296.677 319.674 298.302 321.474 299.627 320.399C300.802 319.449 300.602 315.474 299.427 304.024C299.002 299.874 298.427 294.324 298.627 292.674C299.377 293.174 300.302 294.924 300.777 296.249C300.802 296.324 300.827 296.374 300.877 296.424C301.777 303.824 304.077 312.974 304.452 314.499C304.527 314.849 304.852 315.074 305.177 315.074C305.252 315.074 305.302 315.074 305.377 315.024C305.777 314.924 306.027 314.524 305.927 314.124C303.627 305.124 300.802 290.774 302.477 288.124C302.552 287.999 302.627 287.949 302.702 287.924C302.727 287.899 303.452 287.799 304.527 291.074C305.302 293.399 306.027 296.699 306.727 299.874C308.552 308.199 309.827 313.274 312.227 313.774C315.052 314.374 316.802 309.324 319.352 300.949C320.352 297.699 321.827 292.849 322.702 292.224C322.927 292.549 323.652 294.274 322.727 302.924C322.177 307.974 321.327 312.899 321.327 312.949C321.252 313.374 321.527 313.749 321.927 313.824C322.352 313.899 322.727 313.624 322.802 313.224C322.802 313.174 323.702 307.849 324.252 302.549C324.377 301.399 324.452 300.374 324.527 299.424C324.577 299.449 324.627 299.449 324.652 299.474C325.702 299.674 327.152 301.599 325.252 312.149C325.177 312.574 325.127 312.849 325.102 313.049C324.502 317.249 323.677 334.274 323.652 334.999C323.652 335.074 323.652 335.149 323.677 335.224L339.127 395.974C339.202 396.324 339.527 396.549 339.852 396.549C339.927 396.549 339.977 396.549 340.002 396.499C340.402 396.399 340.652 395.999 340.552 395.599Z" fill="black"/>
<path d="M325.451 356.149C325.351 356.149 325.251 356.124 325.126 356.074L322.951 355.074C322.576 354.899 322.401 354.449 322.576 354.074C322.751 353.699 323.201 353.524 323.576 353.699L325.751 354.699C326.126 354.874 326.301 355.324 326.126 355.699C326.001 355.999 325.726 356.149 325.451 356.149Z" fill="black"/>
<path d="M326.452 359.649C326.327 359.649 326.227 359.624 326.127 359.574L323.127 358.074C322.752 357.899 322.602 357.449 322.802 357.074C322.977 356.699 323.427 356.549 323.802 356.749L326.802 358.249C327.177 358.424 327.327 358.874 327.127 359.249C326.977 359.499 326.727 359.649 326.452 359.649Z" fill="black"/>
<path d="M328.276 365.149C328.151 365.149 328.051 365.124 327.951 365.074L324.626 363.399C324.251 363.224 324.101 362.774 324.301 362.399C324.476 362.024 324.926 361.874 325.301 362.074L328.626 363.749C329.001 363.924 329.151 364.374 328.951 364.749C328.826 364.999 328.551 365.149 328.276 365.149Z" fill="black"/>
<path d="M57.2751 354.25C57.2751 354.25 78.2751 335.25 79.0251 332.075C79.0251 332.075 78.2001 330 74.3501 331.65C70.5251 333.325 64.4251 339.725 64.0251 337.9C63.6001 336.075 69.1001 310.325 69.1001 310.325L66.3501 312.25C66.3501 312.25 67.1751 305.25 65.5251 305.175C63.8501 305.1 60.8501 310.6 59.8501 313.85C58.8501 317.1 53.6751 330.85 51.9251 329.275C50.1751 327.7 47.6751 321.525 47.7501 316.275C47.8251 311.025 45.6751 305.95 44.8251 306.35C44.0001 306.775 42.8251 313.175 42.8251 313.175C42.8251 313.175 40.3251 312.925 39.7501 314.5C39.1751 316.075 38.5751 323.075 38.7501 326.175C38.9251 329.25 36.7251 349.2 36.7251 349.2L12.3501 406.95C12.3501 406.95 14.9251 417.1 26.7501 421.425C38.5751 425.75 44.7501 414.75 44.7501 413.75C44.7501 412.75 57.2751 354.25 57.2751 354.25Z" fill="white"/>
<path d="M79.6252 331.55C76.6002 327.875 71.7252 331.875 68.1752 334.8C67.0002 335.8 65.2252 337.25 64.6002 337.325C64.1752 335.9 66.2252 327.925 67.6002 322.6C69.9501 313.475 70.5002 310.875 69.9002 309.975C69.7502 309.725 69.5252 309.6 69.2502 309.55C68.3502 309.425 67.4501 309.975 66.7001 310.725C67.1502 308.425 67.2501 306.55 66.8251 305.525C66.5501 304.875 66.1002 304.6 65.7752 304.475C63.2252 303.575 61.2001 308.475 58.1002 316.575C56.3002 321.3 53.5502 328.425 51.9002 328.525C51.6752 328.525 50.8502 328.325 49.9502 324.925C49.3002 322.475 48.8251 319.2 48.3502 316.05C47.3002 308.95 46.7252 305.55 44.8252 305.6C43.7502 305.65 42.6752 306.6 42.0752 312.575C41.9752 312.525 41.8502 312.5 41.7252 312.5C37.9002 312.65 37.6252 320.05 37.8002 326.475C37.8252 326.85 37.8252 327.15 37.8252 327.325C37.8002 331.325 36.1502 347.5 36.0002 349L11.6752 406.65C11.5252 407.025 11.7002 407.475 12.0752 407.625C12.1752 407.65 12.2752 407.675 12.3752 407.675C12.6502 407.675 12.9252 407.5 13.0502 407.225L37.4252 349.475C37.4502 349.4 37.4752 349.325 37.4752 349.25C37.5502 348.525 39.2752 331.575 39.3252 327.325C39.3252 327.15 39.3002 326.85 39.3002 326.425C39.0002 315.725 40.7252 314.05 41.7752 314C41.8252 314 41.9002 314 41.9502 313.975C41.8752 314.9 41.8002 315.95 41.7502 317.1C41.5002 322.425 41.6002 327.825 41.6002 327.875C41.6002 328.275 41.9502 328.6 42.3502 328.6C42.3752 328.6 42.3752 328.6 42.3752 328.6C42.7752 328.575 43.1002 328.25 43.1002 327.825C43.1002 327.775 43.0002 322.8 43.2252 317.7C43.6002 309 44.5751 307.4 44.8502 307.125C45.6252 307.9 46.3502 312.9 46.8502 316.25C48.1252 324.9 49.1002 330.15 51.9752 330C54.4252 329.875 56.4502 325.05 59.5002 317.1C60.6502 314.05 61.8502 310.9 62.9752 308.725C64.5252 305.65 65.2252 305.875 65.2502 305.875C65.3252 305.9 65.4002 306 65.4501 306.125C66.7001 309 61.7752 322.75 58.1502 331.3C58.0002 331.675 58.1752 332.125 58.5502 332.275C58.6502 332.3 58.7502 332.325 58.8502 332.325C59.1502 332.325 59.4252 332.15 59.5252 331.9C60.1252 330.45 63.7752 321.75 65.7752 314.55C65.8502 314.5 65.9252 314.4 65.9752 314.325C66.7252 312.95 67.8752 311.5 68.6502 311.125C68.5752 312.8 67.2002 318.175 66.1502 322.225C63.2752 333.375 62.4752 337.275 63.5002 338.4C64.6502 339.65 66.5252 338.1 69.1252 335.975C73.0252 332.775 76.4252 330.275 78.3752 332.425C78.2752 332.8 77.6252 334 73.8251 337.725C71.1002 340.4 67.5751 343.55 64.4501 346.325C58.2752 351.825 56.7002 353.3 56.5502 354.075C56.2252 355.725 43.8502 413 43.7252 413.575C43.6502 414 43.9002 414.375 44.3002 414.475C44.3502 414.5 44.4002 414.5 44.4502 414.5C44.8002 414.5 45.1002 414.25 45.2002 413.85C45.7002 411.525 57.5002 357 58.0252 354.4C58.4502 353.65 62.1502 350.325 65.4501 347.4C78.9001 335.425 80.7752 332.95 79.6252 331.55Z" fill="black"/>
<path d="M45.9497 371.45C46.0747 371.575 46.2747 371.65 46.4497 371.65C46.6497 371.65 46.8497 371.575 46.9997 371.4C47.2747 371.1 47.2497 370.625 46.9497 370.35L44.7747 368.35C44.4747 368.075 43.9997 368.1 43.7247 368.4C43.4497 368.7 43.4747 369.175 43.7747 369.45L45.9497 371.45Z" fill="black"/>
<path d="M45.9507 375.5C46.1507 375.5 46.3507 375.4 46.5007 375.25C46.7757 374.95 46.7257 374.475 46.4257 374.2L43.7507 371.875C43.4507 371.6 42.9757 371.65 42.7007 371.95C42.4257 372.25 42.4757 372.725 42.7757 373L45.4507 375.325C45.6007 375.45 45.7757 375.5 45.9507 375.5Z" fill="black"/>
</svg>
