<svg width="200" height="200" viewBox="0 0 200 200" fill="none" xmlns="http://www.w3.org/2000/svg">
<path d="M179.525 59.1999C179.642 60.9582 179.642 62.7249 179.642 64.4999C179.642 118.725 138.358 181.25 62.8917 181.25V181.217C40.6 181.25 18.7667 174.867 0 162.825C3.24167 163.217 6.5 163.408 9.76667 163.417C28.25 163.433 46.2 157.233 60.725 145.817C43.1667 145.483 27.7667 134.033 22.3917 117.317C28.5417 118.5 34.875 118.258 40.9167 116.617C21.7667 112.75 8 95.9249 8 76.3916C8 76.2166 8 76.0416 8 75.8749C13.7083 79.0582 20.0917 80.8166 26.625 81.0082C8.59167 68.9666 3.025 44.9832 13.9167 26.2332C34.75 51.8666 65.4917 67.4499 98.4833 69.1082C95.175 54.8582 99.7 39.9249 110.35 29.8999C126.875 14.3582 152.867 15.1582 168.408 31.6832C177.6 29.8749 186.408 26.4999 194.467 21.7249C191.4 31.2249 184.992 39.2916 176.425 44.4249C184.567 43.4499 192.508 41.2749 200 37.9582C194.492 46.1999 187.558 53.3916 179.525 59.1999Z" fill="#5CA2E3"/>
</svg>
